<?xml version="1.0" encoding="UTF-8" standalone="no"?>
<svg
   id="iconCinemaxClassics"
   version="1.1"
   viewBox="0 0 1000 500.55196"
   xml:space="preserve"
   width="1000"
   height="500.55197"
   xmlns="http://www.w3.org/2000/svg"
   xmlns:svg="http://www.w3.org/2000/svg"><defs
     id="defs1"><style
       id="style1">
      .cls-1 {
        fill: #000;
        stroke-width: 0px;
      }
    </style></defs><path
     d="M 1000,0 968.17964,227.9189 0,346.74964 31.82041,118.83073 Z"
     id="path4"
     style="fill:#fab813;fill-opacity:1;stroke-width:4.48553" /><path
     d="m 103.89842,261.03557 c -1.30078,11.03889 10.38847,20.13109 24.67487,18.18435 v 0 l 74.02469,-9.09214 5.19427,-34.41751 -50.00024,6.49504 c -6.49052,1.30084 -12.98556,-1.29633 -11.68924,-9.73811 l 4.5483,-31.16992 c 1.29632,-9.74256 9.73811,-12.33973 18.17983,-13.63605 l 46.10681,-5.84462 5.19427,-34.41751 -81.82057,10.39299 c -11.68931,1.29632 -20.1311,9.08769 -22.72827,19.48074 z"
     id="path9"
     style="stroke-width:4.48553" /><path
     d="m 272.0789,141.55448 -39.6117,5.19872 -17.52949,122.72415 39.60726,-5.19426 z"
     id="path8"
     style="stroke-width:4.48553" /><path
     d="m 266.88463,262.33641 38.96135,-5.19427 9.08776,-61.03913 35.06786,55.19451 35.06341,-4.54836 17.53393,-122.72416 -38.96135,5.19427 -8.44179,58.44196 -33.76702,-53.24776 -37.66057,5.84469 z"
     id="path7"
     style="stroke-width:4.48553" /><path
     d="m 447.40491,164.93303 1.94666,-12.33966 62.33553,-7.79137 5.1942,-33.76708 -101.29679,12.33966 -17.53394,122.72867 100.00047,-12.33966 4.54833,-33.76715 -62.33992,7.79137 1.94681,-13.63599 57.79598,-7.14095 4.54385,-29.21878 z"
     id="path6"
     style="stroke-width:4.48553" /><path
     id="path5"
     d="m 909.09119,62.98629 -46.10813,5.84345 -20.77187,31.81924 -16.89086,-27.27238 -42.85782,5.19516 34.42117,52.5911 -39.61636,57.79503 -29.21727,-105.83927 -38.95931,5.19515 -62.99015,120.12815 16.23377,-114.284693 -43.49741,5.195161 -31.17095,46.099352 -19.48403,-39.6076 -38.95927,5.19516 -17.53915,121.42475 38.96806,-5.19516 8.43666,-61.03652 21.42891,40.25589 h 0.6483 l 33.11587,-46.74765 -9.08495,61.03653 36.3573,-4.54686 3.25026,-0.6483 39.60761,-5.19516 8.4454,-16.88207 41.56128,-5.19515 3.88981,16.23377 31.81924,-3.89856 10.39029,-1.2966 35.06075,-4.54686 24.03088,-37.00564 18.83574,31.81048 42.85786,-5.19515 -36.36613,-57.13797 z m -187.0169,69.48194 7.14882,28.56898 -21.42896,2.5932 z"
     style="stroke-width:4.48553" /><path
     class="cls-1"
     d="m 328.68629,500.18171 c 19.05454,-2.34132 31.5378,-13.63605 34.1798,-31.85634 l 5.20323,-35.88856 -20.83531,2.55671 -5.09557,35.15301 c -0.93748,6.44138 -4.64699,10.33473 -10.70249,11.07488 -5.87597,0.72209 -8.57635,-2.37732 -7.64332,-8.82295 l 13.50594,-93.12427 c 0.93296,-6.44124 4.64699,-10.33467 10.52303,-11.05237 6.05549,-0.7446 8.75129,2.35939 7.81826,8.80064 l -4.4047,30.36707 20.83525,-2.56124 4.53933,-31.28661 c 2.6151,-18.0363 -6.98387,-26.6171 -26.043,-24.28016 -18.87508,2.31901 -31.35834,13.61361 -33.97344,31.64991 l -13.74365,94.78383 c -2.642,18.22015 6.96155,26.80095 25.83664,24.48645 z m 54.22562,-8.46855 43.09699,-5.28865 2.82591,-19.51195 -22.08229,2.71379 18.52075,-127.73006 -21.01471,2.58361 z m 58.23122,-7.15005 21.90283,-2.68669 8.10094,-35.3417 15.13408,-1.85688 -1.86146,34.57445 21.90283,-2.69135 2.8259,-144.96346 -28.13778,3.45833 z m 34.61031,-57.75574 14.7215,-62.90511 -2.96491,61.46088 z m 78.73903,45.64927 c 19.05454,-2.34133 31.53787,-13.63599 34.1798,-31.85627 l 2.42667,-16.74895 c 5.73703,-39.56687 -32.41696,-32.17467 -30.12936,-57.5808 l 2.1351,-14.7215 c 0.93303,-6.44125 4.64254,-10.3346 10.5231,-11.05682 6.05097,-0.74015 8.75136,2.36384 7.81833,8.80509 l -3.47188,23.92582 20.83976,-2.56123 3.60193,-24.84537 c 2.6151,-18.03631 -6.98846,-26.61717 -26.043,-24.28016 -18.87515,2.31901 -31.35834,13.61361 -33.97344,31.64991 l -2.2696,15.6455 c -5.68316,39.19912 32.47069,31.80247 30.13375,57.58073 l -2.31902,16.00893 c -0.9374,6.44125 -4.64705,10.33474 -10.70248,11.07482 -5.87604,0.72215 -8.57635,-2.38184 -7.64339,-8.82309 l 3.49878,-24.1098 -20.83984,2.56124 -3.60185,24.84543 c -2.642,18.22008 6.96155,26.80101 25.83664,24.48652 z m 81.56042,-10.01606 c 19.05461,-2.34153 31.5378,-13.63613 34.17987,-31.85641 l 2.4266,-16.74443 C 678.40091,374.26835 640.24685,381.665 642.53,356.25894 l 2.13517,-14.72602 c 0.93303,-6.44118 4.64706,-10.33015 10.52296,-11.0523 6.05549,-0.7446 8.75143,2.35932 7.8184,8.80057 l -3.46729,23.92582 20.83524,-2.55665 3.60186,-24.84995 c 2.6151,-18.03631 -6.98408,-26.6171 -26.03855,-24.27571 -18.8796,2.31456 -31.36279,13.60916 -33.97789,31.64546 l -2.26515,15.6455 c -5.68323,39.19912 32.47076,31.80692 30.12923,57.5808 l -2.31888,16.01338 c -0.93302,6.44117 -4.64712,10.33022 -10.70255,11.07475 -5.87604,0.72215 -8.57628,-2.38184 -7.63887,-8.82295 l 3.49432,-24.1098 -20.83538,2.55671 -3.60192,24.84544 c -2.64193,18.22015 6.9571,26.80546 25.83219,24.48658 z m 53.1581,-8.3342 20.83524,-2.55672 21.35104,-147.23764 -20.83976,2.55672 z m 74.70201,-7.36537 c 19.05461,-2.34139 31.53766,-13.63585 34.17987,-31.8562 l 5.20309,-35.88871 -20.83538,2.56124 -5.0955,35.15314 c -0.93741,6.44124 -4.64693,10.33015 -10.70242,11.07475 -5.87617,0.72208 -8.57642,-2.38185 -7.64339,-8.82302 l 13.50587,-93.12865 c 0.93303,-6.44118 4.6472,-10.33016 10.5231,-11.05231 6.05549,-0.74453 8.75136,2.35933 7.81833,8.80057 l -4.4049,30.36707 20.83538,-2.55678 4.53946,-31.28655 c 2.61511,-18.0363 -6.984,-26.62162 -26.04299,-24.28022 -18.87516,2.31456 -31.35834,13.60915 -33.97344,31.64546 l -13.74379,94.78369 c -2.64207,18.22029 6.96155,26.80567 25.83671,24.48652 z m 82.45299,-10.12373 c 19.05448,-2.34153 31.53794,-13.6316 34.17987,-31.85627 l 2.42674,-16.74449 c 5.73696,-39.5714 -32.41716,-32.17474 -30.13401,-57.5808 l 2.13517,-14.72603 c 0.93289,-6.44117 4.64706,-10.33015 10.52296,-11.0523 6.05563,-0.7446 8.75601,2.3594 7.81833,8.80057 l -3.46723,23.9259 20.83539,-2.55679 3.60178,-24.84537 c 2.6151,-18.0363 -6.984,-26.62162 -26.03861,-24.28016 -18.87502,2.3145 -31.35834,13.60909 -33.97344,31.6454 l -2.26946,15.64556 c -5.68317,39.20351 32.47069,31.80686 30.13374,57.58073 l -2.32353,16.01338 c -0.93289,6.44132 -4.64692,10.33016 -10.70242,11.07476 -5.87617,0.72221 -8.5719,-2.38178 -7.63887,-8.82302 l 3.49406,-24.10974 -20.83525,2.55672 -3.60179,24.84537 c -2.64193,18.22035 6.95704,26.80546 25.83657,24.48658 z"
     id="path3" /></svg>
